<?xml version="1.0" ?><svg height="32" id="svg4475" version="1.1" width="32" xmlns="http://www.w3.org/2000/svg" xmlns:cc="http://creativecommons.org/ns#" xmlns:dc="http://purl.org/dc/elements/1.1/" xmlns:inkscape="http://www.inkscape.org/namespaces/inkscape" xmlns:rdf="http://www.w3.org/1999/02/22-rdf-syntax-ns#" xmlns:sodipodi="http://sodipodi.sourceforge.net/DTD/sodipodi-0.dtd" xmlns:svg="http://www.w3.org/2000/svg"><defs id="defs4477"/><g id="layer1" transform="translate(0,-1020.3622)"><g id="g10414" transform="translate(309.5948,-461.25192)"><g id="g15415" transform="translate(66.405195,515.25192)"><g id="g15417" transform="translate(-150,-49.999983)"><g id="g14600" transform="translate(-49.999995,-130.00002)"><path d="M 16.25 4.09375 C 11.977473 4.09375 8.5434416 7.4656446 8.375 11.625 C 6.914688 11.98512 5.7917376 12.480461 5 13.0625 C 4.13486 13.6985 3.625 14.48465 3.625 15.34375 C 3.625 16.09715 4.08055 16.7818 4.75 17.3125 C 5.41945 17.8432 6.32843 18.2566 7.4375 18.625 C 8.3861245 18.940148 9.5159535 19.177432 10.71875 19.375 C 11.072108 19.723559 11.444398 20.068216 11.84375 20.34375 L 9 25.21875 C 8.8703165 25.187197 8.728716 25.156631 8.59375 25.15625 C 8.22927 25.15525 7.87046 25.2422 7.53125 25.4375 A 0.50005 0.50005 0 0 0 7.5 25.46875 C 6.888 25.87875 6.5 26.5751 6.5 27.375 A 0.50005 0.50005 0 0 0 7 27.875 L 8.5625 27.875 L 10.15625 27.875 A 0.50005 0.50005 0 0 0 10.65625 27.375 C 10.65625 26.752447 10.388614 26.149779 9.90625 25.71875 L 12.6875 20.875 C 13.631495 21.365673 14.674566 21.616877 15.75 21.6875 L 15.75 24.53125 C 15.542039 24.581389 15.334999 24.630047 15.15625 24.75 C 14.54429 25.1601 14.15625 25.8877 14.15625 26.6875 A 0.50005 0.50005 0 0 0 14.65625 27.1875 L 16.25 27.1875 L 17.8125 27.1875 A 0.50005 0.50005 0 0 0 18.3125 26.6875 C 18.3125 25.8876 17.92542 25.1595 17.3125 24.75 C 17.133751 24.630214 16.949405 24.581438 16.75 24.53125 L 16.75 21.6875 C 17.875105 21.613452 18.93352 21.315495 19.90625 20.78125 L 22.4375 25.40625 C 22.385832 25.43399 22.330967 25.435372 22.28125 25.46875 C 21.66924 25.87875 21.28125 26.5751 21.28125 27.375 A 0.50005 0.50005 0 0 0 21.78125 27.875 L 23.34375 27.875 L 24.9375 27.875 A 0.50005 0.50005 0 0 0 25.4375 27.375 C 25.4375 26.5751 25.05048 25.87805 24.4375 25.46875 C 24.141029 25.269988 23.783578 25.170743 23.4375 25.15625 L 20.75 20.25 C 21.117426 19.98437 21.483625 19.673061 21.8125 19.34375 A 0.50005 0.50005 0 0 0 21.875 19.28125 C 22.845245 19.098896 23.772849 18.887336 24.5625 18.625 C 25.67156 18.2566 26.58056 17.8432 27.25 17.3125 C 27.91944 16.7818 28.375 16.09715 28.375 15.34375 C 28.375 14.52785 27.82293 13.8255 27.03125 13.25 C 26.296641 12.715987 25.303095 12.263114 24.09375 11.875 C 24.059422 7.5982942 20.610035 4.09375 16.25 4.09375 z M 16.25 5.09375 C 20.09281 5.09375 23.09375 8.1668 23.09375 11.9375 A 0.50005 0.50005 0 0 0 23.1875 12.21875 C 23.0909 13.15365 22.3595 14.04735 21.15625 14.71875 C 19.953 15.39005 18.29026 15.8125 16.46875 15.8125 C 14.57177 15.8125 12.75034 15.3471 11.4375 14.625 C 10.12466 13.9029 9.375 12.96385 9.375 12.03125 A 0.50005 0.50005 0 0 0 9.375 12 A 0.50005 0.50005 0 0 0 9.375 11.9375 C 9.375 8.1668 12.4072 5.09375 16.25 5.09375 z M 8.625 12.6875 C 8.91012 13.8183 9.72455 14.8157 10.96875 15.5 C 12.46332 16.322 14.41157 16.8125 16.46875 16.8125 C 18.44325 16.8125 20.26951 16.36745 21.65625 15.59375 C 22.81992 14.94445 23.56873 13.98355 23.90625 12.90625 C 24.95401 13.25885 25.86891 13.6492 26.4375 14.0625 C 27.08906 14.5361 27.375 14.97175 27.375 15.34375 C 27.375 15.69885 27.15415 16.11185 26.625 16.53125 C 26.09585 16.95075 25.28605 17.3433 24.25 17.6875 C 22.17789 18.3758 19.23773 18.8125 16 18.8125 C 12.76232 18.8125 9.82212 18.3758 7.75 17.6875 C 6.71394 17.3433 5.90416 16.95075 5.375 16.53125 C 4.84584 16.11185 4.625 15.69885 4.625 15.34375 C 4.625 14.85675 4.89699 14.35595 5.59375 13.84375 C 6.213 13.38845 7.31276 13.0209 8.625 12.6875 z M 6.65625 13.875 C 6.33994 13.875 6.125 14.08825 6.125 14.40625 C 6.125 14.64565 6.33979 14.90625 6.65625 14.90625 C 6.8935 14.90625 7.15625 14.64195 7.15625 14.40625 C 7.15625 14.08755 6.8935 13.875 6.65625 13.875 z M 25.1875 14.09375 C 24.95025 14.09375 24.6875 14.3231 24.6875 14.5625 C 24.6875 14.8805 24.95025 15.125 25.1875 15.125 C 25.50396 15.125 25.71875 14.8813 25.71875 14.5625 C 25.71875 14.3268 25.50385 14.09375 25.1875 14.09375 z M 8.5625 15.53125 C 8.24619 15.53125 8 15.77585 8 16.09375 C 8 16.41255 8.24604 16.625 8.5625 16.625 C 8.79975 16.625 9.03125 16.41175 9.03125 16.09375 C 9.03125 15.77505 8.79975 15.53125 8.5625 15.53125 z M 23.28125 15.75 C 23.044 15.75 22.8125 15.9938 22.8125 16.3125 C 22.8125 16.5482 23.044 16.78125 23.28125 16.78125 C 23.59771 16.78125 23.84375 16.5519 23.84375 16.3125 C 23.84375 15.9945 23.5976 15.75 23.28125 15.75 z M 11.5 16.71875 C 11.18365 16.71875 10.9375 16.96325 10.9375 17.28125 C 10.9375 17.51695 11.18354 17.75 11.5 17.75 C 11.81623 17.75 12.03125 17.51695 12.03125 17.28125 C 12.03125 16.96255 11.81608 16.71875 11.5 16.71875 z M 19.96875 16.78125 C 19.65244 16.78125 19.40625 17.02575 19.40625 17.34375 C 19.40625 17.66215 19.65229 17.90625 19.96875 17.90625 C 20.206 17.90625 20.4375 17.66175 20.4375 17.34375 C 20.4375 17.02505 20.206 16.78125 19.96875 16.78125 z M 15.6875 17.28125 C 15.45025 17.28125 15.21875 17.5106 15.21875 17.75 C 15.21875 18.0687 15.45025 18.28125 15.6875 18.28125 C 16.00385 18.28125 16.25 18.068 16.25 17.75 C 16.25 17.5106 16.00396 17.28125 15.6875 17.28125 z M 20 19.5625 C 18.886961 20.321038 17.623423 20.71875 16.25 20.71875 C 14.914112 20.71875 13.662577 20.343762 12.5625 19.625 C 13.66058 19.73488 14.798334 19.8125 16 19.8125 C 17.409574 19.8125 18.738503 19.711842 20 19.5625 z M 16.25 25.46875 C 16.431875 25.46875 16.598125 25.49195 16.75 25.59375 C 16.93318 25.71605 16.9617 25.9789 17.0625 26.1875 L 16.25 26.1875 L 15.40625 26.1875 C 15.50702 25.979 15.53488 25.71695 15.71875 25.59375 C 15.870625 25.49195 16.068125 25.46875 16.25 25.46875 z M 8.625 26.15625 C 8.7922588 26.157863 8.935985 26.20675 9.09375 26.3125 C 9.3018 26.4316 9.32124 26.6809 9.40625 26.875 L 8.5625 26.875 L 7.75 26.875 C 7.85078 26.6718 7.88216 26.4333 8.0625 26.3125 C 8.26695 26.2003 8.4577412 26.154637 8.625 26.15625 z M 23.375 26.1875 C 23.556875 26.1875 23.723125 26.2107 23.875 26.3125 C 24.05465 26.4325 24.0867 26.6716 24.1875 26.875 L 23.34375 26.875 L 22.53125 26.875 C 22.63202 26.6718 22.66342 26.4333 22.84375 26.3125 C 22.995625 26.2107 23.193125 26.1875 23.375 26.1875 z " id="path11118" style="font-size:medium;font-style:normal;font-variant:normal;font-weight:normal;font-stretch:normal;text-indent:0;text-align:start;text-decoration:none;line-height:normal;letter-spacing:normal;word-spacing:normal;text-transform:none;direction:ltr;block-progression:tb;writing-mode:lr-tb;text-anchor:start;baseline-shift:baseline;color:#000000;fill:#000000;fill-opacity:1;stroke:none;stroke-width:1;marker:none;visibility:visible;display:inline;overflow:visible;enable-background:accumulate;font-family:Sans;-inkscape-font-specification:Sans" transform="translate(-176,1146.3622)"/></g></g></g></g></g></svg>